<svg width="254" height="244" viewBox="0 0 254 244" fill="none" xmlns="http://www.w3.org/2000/svg">
<g id="Group">
<g id="Group_2">
<path id="Vector" d="M128.238 153.25H125.608V70.5615H128.238V153.25ZM134.053 151.462H131.423V70.5833H134.053V151.462ZM122.338 151.462H119.708V70.5615H122.338V151.462Z" fill="#4998D3"/>
<path id="Vector_2" d="M126.957 178.062C145.525 178.062 160.695 162.632 160.695 143.294L160.71 68.4953V67.1274H159.092H140.89H139.275V68.4953V146.819C139.275 155.22 133.027 159.125 126.965 159.125C120.902 159.125 114.655 155.22 114.655 146.819V68.4953V67.1274H113.04H94.8375H93.22V68.4953L93.2275 143.296C93.225 162.634 108.39 178.062 126.957 178.062Z" fill="#2178C4"/>
</g>
<g id="Group_3">
<path id="Vector_3" d="M127.337 19.9493L127.402 19.0237C128.14 19.0358 128.655 18.9053 128.947 18.6322C129.24 18.3615 129.417 17.9676 129.482 17.4553C129.547 16.943 129.602 16.3581 129.65 15.7032L130.502 3.57878C130.53 3.2042 130.565 2.84412 130.607 2.50095C130.65 2.15537 130.692 1.84362 130.732 1.56328C130.382 1.55845 130.032 1.55603 129.682 1.5512C129.332 1.54637 128.982 1.54395 128.632 1.53912L128.72 0.304199L135.252 0.734366L135.187 1.65995C134.47 1.63095 133.96 1.75903 133.657 2.03937C133.355 2.3197 133.172 2.71362 133.107 3.21628C133.042 3.71895 132.987 4.30862 132.94 4.98045L132.092 17.0203C132.057 17.5254 132.022 17.9555 131.987 18.3108C131.952 18.666 131.907 18.9633 131.852 19.205L137.287 19.478C138.507 19.5385 139.457 19.2267 140.14 18.538C140.82 17.8492 141.217 16.6819 141.335 15.0362L142.322 15.1015L141.74 20.899L127.337 19.9493Z" fill="white"/>
<path id="Vector_4" d="M149.502 22.9773C148.195 22.7042 147.08 22.1605 146.16 21.3436C145.24 20.5268 144.6 19.5118 144.235 18.2938C143.872 17.0758 143.857 15.7249 144.187 14.2411C144.475 12.9578 145.042 11.8196 145.887 10.8263C146.735 9.83306 147.775 9.10564 149.01 8.64406C150.245 8.18248 151.572 8.10031 152.995 8.39756C153.792 8.56431 154.507 8.84222 155.145 9.23372C155.782 9.62522 156.31 10.1303 156.727 10.7441C157.145 11.3604 157.422 12.0781 157.555 12.9022C157.687 13.7263 157.64 14.6519 157.41 15.679L147.36 13.7529C147.047 15.1449 146.932 16.4016 147.01 17.5205C147.087 18.6394 147.412 19.5626 147.985 20.2851C148.557 21.0101 149.392 21.4862 150.495 21.7158C151.082 21.8391 151.707 21.8632 152.37 21.7907C153.03 21.7182 153.665 21.5636 154.275 21.3243C154.882 21.0875 155.395 20.7902 155.812 20.4374L156.372 21.131C155.687 21.7931 154.935 22.2789 154.112 22.5882C153.29 22.8951 152.475 23.0716 151.672 23.1151C150.87 23.1561 150.147 23.1102 149.502 22.9773ZM147.707 12.6146L154.96 14.1299C155.107 13.4701 155.15 12.8128 155.087 12.1555C155.025 11.5006 154.81 10.9278 154.445 10.4372C154.077 9.94906 153.525 9.62764 152.785 9.47298C151.685 9.24339 150.7 9.36906 149.827 9.84756C148.957 10.3285 148.25 11.2516 147.707 12.6146Z" fill="white"/>
<path id="Vector_5" d="M162.56 26.6387C161.645 26.3221 160.877 25.9233 160.252 25.44C159.627 24.9567 159.142 24.4854 158.797 24.0263L158.565 24.9905L157.415 24.5942L158.935 19.9808L159.785 20.2732C159.555 21.0103 159.525 21.7328 159.695 22.4385C159.867 23.1442 160.195 23.7604 160.68 24.2873C161.165 24.8141 161.755 25.1959 162.45 25.4352C162.925 25.5995 163.417 25.6841 163.93 25.6914C164.442 25.6986 164.91 25.6019 165.335 25.3989C165.76 25.1983 166.06 24.8576 166.237 24.3815C166.42 23.8885 166.42 23.4245 166.24 22.9943C166.06 22.5642 165.767 22.1389 165.365 21.7208C164.962 21.3027 164.517 20.8919 164.03 20.4834C163.56 20.0823 163.092 19.6714 162.63 19.2534C162.167 18.8353 161.76 18.3858 161.412 17.9073C161.065 17.4288 160.837 16.9116 160.732 16.3582C160.627 15.8048 160.7 15.1934 160.947 14.5215C161.085 14.1518 161.307 13.7699 161.617 13.3784C161.927 12.9869 162.327 12.6534 162.822 12.3755C163.315 12.0976 163.912 11.9357 164.61 11.8874C165.307 11.839 166.122 11.9768 167.055 12.2982C167.547 12.4698 168.067 12.738 168.61 13.1054C169.155 13.4727 169.627 13.9753 170.03 14.6109L170.347 13.5863L171.497 13.9826L169.785 18.6178L168.907 18.3157C169.1 17.6849 169.172 17.0397 169.13 16.3751C169.085 15.7129 168.887 15.1064 168.535 14.5578C168.182 14.0068 167.612 13.5959 166.827 13.3253C165.987 13.0353 165.255 13.0111 164.63 13.2528C164.005 13.4944 163.595 13.8811 163.397 14.4104C163.195 14.9589 163.205 15.4737 163.427 15.9594C163.65 16.4452 163.995 16.9164 164.465 17.378C164.932 17.8396 165.442 18.3036 165.99 18.77C166.58 19.292 167.142 19.8358 167.675 20.3964C168.207 20.9595 168.592 21.5637 168.827 22.2138C169.062 22.8614 169.032 23.584 168.737 24.3791C168.41 25.2636 167.907 25.9137 167.227 26.3366C166.545 26.7595 165.795 26.9819 164.972 27.006C164.15 27.0326 163.345 26.9094 162.56 26.6387Z" fill="white"/>
<path id="Vector_6" d="M185.337 16.6312C185.497 16.3751 185.655 16.1334 185.81 15.9038C185.965 15.6767 186.157 15.4108 186.392 15.1112C186.085 14.9517 185.78 14.797 185.48 14.6423C185.18 14.4877 184.875 14.333 184.567 14.1735L185.2 13.1633C185.93 13.5911 186.517 13.8907 186.965 14.0647C187.412 14.2387 187.767 14.3378 188.037 14.3644C188.305 14.3886 188.532 14.3813 188.717 14.3354L189.44 14.7583L184.945 21.9262C185.69 21.7497 186.46 21.7232 187.255 21.8488C188.05 21.9745 188.827 22.2597 189.592 22.7067C190.655 23.3278 191.457 24.1398 192 25.1355C192.542 26.1336 192.777 27.2356 192.7 28.4415C192.622 29.6474 192.195 30.8751 191.41 32.1269C190.555 33.4899 189.507 34.4928 188.265 35.1357C187.022 35.7785 185.74 36.0854 184.42 36.0564C183.1 36.0274 181.875 35.6842 180.747 35.0221C180.182 34.691 179.627 34.2294 179.082 33.6349C178.537 33.0404 178.177 32.2985 178.01 31.4116L176.735 32.1438L175.865 31.6339L185.337 16.6312ZM180.42 29.1423C179.887 29.993 179.617 30.7277 179.615 31.3512C179.61 31.9747 179.777 32.5039 180.115 32.9437C180.452 33.3836 180.87 33.7485 181.367 34.0385C182.165 34.5049 182.987 34.691 183.84 34.5992C184.692 34.5073 185.52 34.1738 186.32 33.6011C187.12 33.0283 187.837 32.2381 188.472 31.2279C189.155 30.138 189.615 29.0964 189.852 28.1056C190.087 27.1147 190.072 26.2157 189.805 25.4134C189.537 24.6111 188.972 23.9562 188.11 23.4511C187.562 23.1297 186.94 22.9363 186.245 22.8687C185.55 22.801 184.88 22.8638 184.237 23.0572L180.42 29.1423Z" fill="white"/>
<path id="Vector_7" d="M189.157 38.8211C189.635 39.174 190.057 39.3069 190.425 39.2126C190.792 39.1184 191.155 38.8791 191.51 38.4925C191.865 38.1058 192.257 37.6466 192.682 37.1101L196.725 32.0255C196.915 31.7886 197.102 31.5663 197.29 31.3633C197.477 31.1603 197.702 30.921 197.97 30.6455C197.68 30.4546 197.395 30.2661 197.115 30.0825C196.835 29.8964 196.55 29.7103 196.26 29.5194L197.005 28.5817C197.682 29.0844 198.227 29.4445 198.645 29.6571C199.062 29.8722 199.4 30.0051 199.665 30.0607C199.927 30.1139 200.155 30.1284 200.345 30.1042L201.015 30.602L193.85 39.6114C193.612 39.9086 193.4 40.1696 193.21 40.3944C193.017 40.6191 192.8 40.8415 192.552 41.059C192.81 41.2281 193.062 41.3949 193.305 41.5665C193.55 41.7356 193.8 41.9048 194.057 42.074L193.33 42.9875L188.622 39.4905L189.157 38.8211ZM201.64 27.5522C201.317 27.313 201.132 26.9746 201.087 26.5396C201.042 26.1046 201.167 25.701 201.462 25.3289C201.757 24.9567 202.135 24.7344 202.597 24.6643C203.057 24.5918 203.45 24.6764 203.772 24.9156C204.127 25.179 204.317 25.5295 204.35 25.9669C204.38 26.4043 204.25 26.8103 203.955 27.18C203.66 27.5522 203.285 27.7697 202.83 27.835C202.375 27.8978 201.98 27.8035 201.64 27.5522Z" fill="white"/>
<path id="Vector_8" d="M207.757 31.6074C207.972 31.3923 208.18 31.1869 208.382 30.9984C208.585 30.8099 208.832 30.5924 209.13 30.3483C208.865 30.1284 208.602 29.9109 208.345 29.6958C208.087 29.4807 207.825 29.2656 207.56 29.0433L208.407 28.1902C209.022 28.7629 209.527 29.1786 209.925 29.4444C210.32 29.7079 210.647 29.8819 210.902 29.964C211.157 30.0462 211.382 30.0849 211.575 30.08L212.182 30.6455L206.175 36.6896C206.942 36.6751 207.7 36.8129 208.447 37.1029C209.195 37.3929 209.89 37.8375 210.532 38.4344C211.427 39.2658 212.027 40.2252 212.33 41.3151C212.632 42.4026 212.612 43.5288 212.265 44.6888C211.917 45.8488 211.22 46.958 210.172 48.0117C209.03 49.162 207.78 49.9184 206.422 50.2834C205.065 50.6483 203.745 50.6773 202.462 50.3704C201.18 50.0634 200.062 49.4689 199.112 48.5844C198.637 48.1422 198.2 47.5743 197.8 46.8783C197.402 46.1823 197.22 45.3848 197.257 44.4809L195.847 44.9256L195.112 44.2441L207.757 31.6074ZM200.127 42.7772C199.415 43.4949 198.985 44.1547 198.84 44.7613C198.695 45.3679 198.737 45.9213 198.967 46.4191C199.197 46.9169 199.522 47.364 199.942 47.7531C200.615 48.3766 201.375 48.7343 202.227 48.8237C203.08 48.9131 203.962 48.7633 204.872 48.3742C205.782 47.9851 206.662 47.364 207.51 46.5134C208.425 45.595 209.107 44.6767 209.562 43.7584C210.017 42.84 210.205 41.9628 210.125 41.1218C210.045 40.2808 209.642 39.5219 208.915 38.8477C208.452 38.4199 207.89 38.0985 207.227 37.8859C206.565 37.6732 205.897 37.5934 205.227 37.6466L200.127 42.7772Z" fill="white"/>
<path id="Vector_9" d="M206.285 53.8647C206.67 54.3094 207.052 54.5268 207.432 54.5123C207.812 54.4978 208.22 54.3408 208.652 54.0387C209.087 53.7366 209.572 53.3693 210.107 52.9367L220.667 44.401C220.905 44.2101 221.135 44.0289 221.357 43.8621C221.58 43.6954 221.85 43.5044 222.175 43.2942C221.935 43.0477 221.7 42.8036 221.467 42.5643C221.235 42.3251 221 42.081 220.76 41.8345L221.697 41.0757C222.245 41.7089 222.7 42.1777 223.065 42.4822C223.43 42.7867 223.732 42.9921 223.98 43.1008C224.225 43.2096 224.442 43.27 224.635 43.2869L225.178 43.9128L210.708 55.6458C210.41 55.8874 210.14 56.0928 209.898 56.2644C209.655 56.436 209.388 56.6028 209.098 56.7647C209.31 56.9822 209.518 57.1997 209.72 57.4172C209.92 57.6347 210.127 57.8522 210.342 58.0697L209.428 58.8092L205.62 54.406L206.285 53.8647Z" fill="white"/>
<path id="Vector_10" d="M211.075 59.4955C211.427 59.9668 211.795 60.2085 212.175 60.2181C212.555 60.2302 212.972 60.0997 213.427 59.8266C213.882 59.5535 214.392 59.22 214.957 58.8237L220.33 55.061C220.58 54.8845 220.827 54.725 221.065 54.58C221.305 54.435 221.592 54.2683 221.93 54.0798C221.71 53.8188 221.492 53.5578 221.277 53.304C221.062 53.0503 220.845 52.7917 220.625 52.5283L221.615 51.8347C222.115 52.5017 222.535 52.9971 222.87 53.3185C223.205 53.64 223.492 53.8599 223.727 53.9855C223.965 54.1088 224.177 54.1861 224.367 54.2151L224.862 54.8749L215.342 61.5425C215.027 61.7624 214.747 61.9533 214.497 62.1176C214.247 62.2795 213.972 62.4318 213.672 62.5744C213.87 62.8064 214.06 63.0384 214.245 63.268C214.43 63.4975 214.62 63.7295 214.817 63.9615L213.852 64.6382L210.37 59.991L211.075 59.4955ZM226.357 52.1247C226.117 51.8057 226.04 51.4311 226.127 51.001C226.212 50.5708 226.45 50.218 226.845 49.9425C227.237 49.667 227.665 49.5582 228.127 49.6162C228.59 49.6742 228.94 49.8627 229.18 50.1817C229.442 50.5321 229.522 50.9188 229.425 51.3465C229.327 51.7743 229.08 52.1271 228.687 52.4002C228.295 52.6757 227.87 52.782 227.415 52.7168C226.96 52.6588 226.607 52.4606 226.357 52.1247Z" fill="white"/>
<path id="Vector_11" d="M217.915 71.8858C217.245 70.7452 216.912 69.5586 216.915 68.3285C216.917 67.0984 217.242 65.9433 217.895 64.8654C218.545 63.7876 219.492 62.9055 220.742 62.2216C222.075 61.4918 223.432 61.1027 224.81 61.0592C226.19 61.0157 227.46 61.2888 228.62 61.8808C229.782 62.4729 230.702 63.3478 231.382 64.5053C232.052 65.646 232.377 66.8374 232.357 68.0772C232.337 69.3169 232.01 70.4769 231.372 71.5596C230.735 72.6423 229.802 73.5195 228.57 74.1962C227.27 74.9091 225.925 75.2861 224.532 75.3272C223.14 75.3683 221.86 75.0952 220.69 74.5079C219.52 73.9207 218.595 73.0434 217.915 71.8858ZM219.042 71.5258C219.55 72.3909 220.205 72.9371 221.007 73.1643C221.81 73.3914 222.682 73.3938 223.62 73.1715C224.557 72.9492 225.475 72.5915 226.37 72.1009C227.13 71.6853 227.835 71.2043 228.487 70.6654C229.14 70.1241 229.68 69.5417 230.107 68.9206C230.535 68.2995 230.787 67.6567 230.87 66.9993C230.952 66.342 230.8 65.6847 230.417 65.0322C229.92 64.1839 229.26 63.6305 228.437 63.3695C227.615 63.1085 226.725 63.0747 225.767 63.2656C224.81 63.4565 223.865 63.8069 222.937 64.3168C221.89 64.892 220.98 65.5735 220.207 66.3638C219.432 67.154 218.917 67.9974 218.662 68.8916C218.41 69.7809 218.535 70.6606 219.042 71.5258Z" fill="white"/>
<path id="Vector_12" d="M224.072 84.2615C223.902 83.8628 223.787 83.4326 223.727 82.9686C223.667 82.5046 223.73 82.0285 223.92 81.5379C224.11 81.0473 224.487 80.5664 225.055 80.0976C225.62 79.6288 226.442 79.1817 227.52 78.7515L235.347 75.6993L234.467 73.7055L235.625 73.2463C235.835 73.691 236.205 74.0801 236.737 74.416C237.267 74.7519 237.9 74.9912 238.632 75.1362C239.365 75.2812 240.102 75.286 240.842 75.1555L241.22 76.04L237.452 77.5383L239.312 81.9077L238.262 82.3258L236.347 77.9758L228.845 80.8999C228.037 81.2213 227.38 81.5597 226.87 81.9149C226.36 82.2702 226.025 82.652 225.862 83.0604C225.7 83.4688 225.72 83.9087 225.92 84.3751C226.127 84.8608 226.462 85.2596 226.932 85.5689C227.4 85.8807 227.955 86.1006 228.597 86.2287L228.305 87.1663C227.55 87.0189 226.922 86.828 226.425 86.5912C225.925 86.3543 225.517 86.0958 225.197 85.8178C224.88 85.5375 224.635 85.2596 224.465 84.9841C224.292 84.711 224.162 84.4693 224.072 84.2615Z" fill="white"/>
<path id="Vector_13" d="M229.69 96.8524C229.845 97.413 230.1 97.7659 230.45 97.9085C230.8 98.051 231.237 98.0728 231.765 97.9761C232.29 97.8795 232.89 97.7417 233.565 97.5677L237.5 96.5455C239.11 96.1274 240.25 95.5643 240.917 94.8562C241.585 94.1481 241.76 93.2636 241.445 92.2003C241.24 91.5357 240.887 90.9219 240.392 90.3612C239.895 89.8005 239.337 89.3873 238.722 89.119L230.432 91.2723C230.057 91.369 229.722 91.4463 229.427 91.5043C229.132 91.5623 228.817 91.6058 228.485 91.6324C228.585 91.9175 228.677 92.1979 228.765 92.4782C228.852 92.7561 228.945 93.0389 229.045 93.324L227.892 93.6237L226.352 88.0823L227.195 87.8624C227.35 88.423 227.605 88.7759 227.955 88.9185C228.305 89.061 228.745 89.0876 229.272 88.9982C229.8 88.9088 230.402 88.7783 231.075 88.6019L244.367 85.1509C244.667 85.0735 244.955 85.0035 245.227 84.9406C245.502 84.8802 245.83 84.8174 246.215 84.757C246.105 84.4355 245.997 84.119 245.89 83.8072C245.782 83.4955 245.675 83.1789 245.565 82.8575L246.745 82.5505C246.967 83.348 247.175 83.957 247.375 84.3824C247.572 84.8053 247.76 85.117 247.935 85.3152C248.11 85.5134 248.28 85.6584 248.447 85.7502L248.667 86.538L240.095 88.7638C240.562 89.0707 241 89.4356 241.41 89.8634C241.82 90.2911 242.182 90.7503 242.5 91.2409C242.817 91.7315 243.045 92.2293 243.187 92.7368C243.625 94.3125 243.43 95.5812 242.602 96.543C241.775 97.5049 240.287 98.2758 238.137 98.8534L232.917 100.238C232.542 100.335 232.21 100.417 231.915 100.485C231.622 100.55 231.307 100.598 230.975 100.627C231.075 100.912 231.167 101.193 231.255 101.473C231.342 101.751 231.435 102.034 231.535 102.319L230.382 102.619L228.842 97.0771L229.69 96.8524Z" fill="white"/>
<path id="Vector_14" d="M230.835 110.456C230.682 109.17 230.857 107.976 231.36 106.872C231.862 105.768 232.652 104.854 233.73 104.132C234.805 103.407 236.125 102.959 237.685 102.785C239.032 102.636 240.33 102.788 241.577 103.245C242.822 103.701 243.87 104.419 244.72 105.403C245.57 106.384 246.077 107.573 246.242 108.972C246.335 109.755 246.292 110.499 246.112 111.21C245.932 111.918 245.61 112.563 245.142 113.143C244.675 113.723 244.057 114.207 243.295 114.593C242.53 114.98 241.607 115.234 240.53 115.355L239.187 105.536C237.722 105.698 236.455 105.995 235.382 106.425C234.31 106.855 233.512 107.45 232.987 108.206C232.462 108.962 232.265 109.881 232.392 110.961C232.46 111.539 232.637 112.119 232.922 112.701C233.205 113.283 233.562 113.815 233.99 114.296C234.417 114.777 234.872 115.152 235.355 115.42L234.857 116.154C233.987 115.741 233.27 115.207 232.705 114.552C232.14 113.897 231.705 113.209 231.405 112.488C231.097 111.766 230.91 111.089 230.835 110.456ZM240.407 105.485L241.255 112.612C241.95 112.534 242.607 112.363 243.23 112.094C243.852 111.826 244.345 111.447 244.705 110.954C245.065 110.461 245.202 109.852 245.117 109.124C244.99 108.044 244.55 107.181 243.8 106.539C243.05 105.893 241.92 105.543 240.407 105.485ZM248.222 109.854L250.915 106.384C251.22 105.992 251.515 105.756 251.797 105.678C252.08 105.598 252.325 105.601 252.53 105.681C252.735 105.76 252.87 105.835 252.937 105.905C252.982 105.956 253.06 106.072 253.168 106.249C253.278 106.425 253.312 106.647 253.277 106.916C253.24 107.184 253.018 107.474 252.605 107.783L248.98 110.565L248.222 109.854Z" fill="white"/>
<path id="Vector_15" d="M224.422 126.369L225.295 126.394C225.277 126.974 225.417 127.382 225.71 127.614C226.005 127.846 226.417 127.989 226.95 128.042C227.482 128.092 228.097 128.129 228.795 128.148L233.157 128.266C232.59 127.764 232.157 127.15 231.857 126.43C231.557 125.71 231.422 124.898 231.447 123.999C231.482 122.836 231.817 121.785 232.457 120.847C233.097 119.91 233.98 119.173 235.112 118.641C236.245 118.109 237.555 117.863 239.05 117.904C240.68 117.947 242.085 118.31 243.267 118.991C244.45 119.67 245.36 120.569 245.997 121.683C246.635 122.798 246.932 124.02 246.895 125.352C246.872 126.14 246.745 126.853 246.512 127.496C246.28 128.136 246.157 128.692 246.142 129.161C246.137 129.366 246.165 129.559 246.227 129.741C246.29 129.919 246.407 130.089 246.577 130.243L246.555 131.031L227.385 130.536C226.997 130.526 226.652 130.512 226.352 130.495C226.052 130.478 225.737 130.437 225.41 130.371C225.42 130.671 225.427 130.968 225.427 131.258C225.43 131.548 225.435 131.846 225.445 132.145L224.252 132.111L224.422 126.369ZM232.845 125.05C232.827 125.669 232.985 126.268 233.315 126.85C233.647 127.433 234.08 127.916 234.612 128.308L242.232 128.515C243.007 128.537 243.655 128.45 244.175 128.259C244.695 128.066 245.092 127.74 245.367 127.278C245.642 126.816 245.792 126.183 245.815 125.376C245.842 124.477 245.602 123.692 245.097 123.02C244.592 122.348 243.875 121.824 242.945 121.442C242.015 121.06 240.92 120.852 239.66 120.818C238.42 120.784 237.287 120.927 236.27 121.246C235.252 121.565 234.432 122.048 233.812 122.698C233.195 123.349 232.872 124.132 232.845 125.05Z" fill="white"/>
<path id="Vector_16" d="M230.017 138.663C230.205 137.668 230.552 136.865 231.06 136.259C231.567 135.652 232.312 135.258 233.292 135.077C234.272 134.896 235.545 134.944 237.11 135.217L242.207 136.111C242.512 136.164 242.817 136.222 243.12 136.285C243.422 136.348 243.732 136.435 244.047 136.549C244.087 136.232 244.132 135.911 244.182 135.587C244.232 135.263 244.277 134.942 244.317 134.625L245.492 134.83L245.332 135.688C245.185 136.481 245.157 137.073 245.252 137.46C245.347 137.849 245.47 138.161 245.622 138.397L245.472 139.2L236.74 137.668C235.097 137.38 233.83 137.39 232.932 137.701C232.037 138.011 231.495 138.712 231.31 139.804C231.197 140.51 231.297 141.218 231.607 141.928C231.917 142.641 232.332 143.24 232.85 143.733L240.207 145.024C240.665 145.104 241.06 145.183 241.39 145.261C241.72 145.338 242.042 145.432 242.357 145.543C242.4 145.208 242.447 144.874 242.502 144.541C242.555 144.207 242.602 143.871 242.647 143.538L243.822 143.743L243.662 144.601C243.512 145.394 243.485 145.986 243.58 146.372C243.675 146.761 243.797 147.073 243.952 147.31L243.802 148.112L232.985 146.186C232.68 146.133 232.252 146.049 231.702 145.933C231.152 145.817 230.69 145.708 230.315 145.604C230.272 145.94 230.227 146.276 230.185 146.612C230.142 146.948 230.097 147.284 230.055 147.619L228.852 147.409L229.595 143.451C229.93 143.453 230.242 143.465 230.535 143.487C230.827 143.509 231.097 143.533 231.35 143.559C230.865 142.883 230.485 142.102 230.207 141.215C229.927 140.326 229.865 139.475 230.017 138.663Z" fill="white"/>
<path id="Vector_17" d="M225.795 154.657C226.225 153.432 226.912 152.424 227.857 151.636C228.8 150.846 229.92 150.348 231.212 150.138C232.505 149.927 233.895 150.067 235.382 150.558C236.667 150.981 237.772 151.655 238.697 152.583C239.62 153.511 240.25 154.594 240.582 155.831C240.915 157.069 240.847 158.354 240.38 159.686C240.117 160.433 239.75 161.087 239.272 161.655C238.797 162.221 238.22 162.67 237.54 163.001C236.86 163.333 236.09 163.514 235.227 163.548C234.365 163.581 233.42 163.429 232.392 163.091L235.525 153.661C234.13 153.202 232.85 152.946 231.692 152.893C230.532 152.839 229.55 153.045 228.74 153.511C227.93 153.978 227.345 154.727 226.982 155.756C226.79 156.307 226.692 156.904 226.69 157.547C226.69 158.19 226.775 158.818 226.95 159.43C227.125 160.041 227.37 160.568 227.685 161.008L226.91 161.467C226.307 160.735 225.895 159.954 225.672 159.13C225.45 158.304 225.362 157.504 225.412 156.725C225.452 155.95 225.582 155.261 225.795 154.657ZM236.647 154.123L234.26 160.914C234.92 161.131 235.592 161.247 236.272 161.264C236.952 161.278 237.565 161.138 238.11 160.843C238.655 160.546 239.05 160.053 239.292 159.36C239.655 158.33 239.64 157.368 239.245 156.476C238.852 155.585 237.985 154.799 236.647 154.123Z" fill="white"/>
<path id="Vector_18" d="M220.53 166.778C220.96 165.937 221.457 165.244 222.027 164.7C222.597 164.156 223.137 163.743 223.647 163.465L222.682 163.132L223.222 162.071L227.79 164.057L227.39 164.84C226.66 164.533 225.92 164.422 225.175 164.507C224.43 164.591 223.757 164.835 223.162 165.241C222.567 165.647 222.105 166.169 221.78 166.81C221.557 167.247 221.412 167.711 221.345 168.202C221.277 168.692 221.325 169.154 221.482 169.584C221.64 170.014 221.955 170.343 222.425 170.568C222.912 170.8 223.387 170.853 223.85 170.73C224.312 170.606 224.782 170.374 225.257 170.036C225.732 169.698 226.207 169.318 226.682 168.895C227.147 168.489 227.622 168.088 228.107 167.692C228.59 167.296 229.097 166.957 229.63 166.677C230.162 166.397 230.717 166.24 231.3 166.203C231.88 166.167 232.502 166.305 233.162 166.621C233.527 166.795 233.892 167.054 234.26 167.395C234.625 167.735 234.925 168.161 235.152 168.666C235.382 169.171 235.48 169.763 235.45 170.437C235.42 171.112 235.185 171.88 234.747 172.738C234.515 173.192 234.18 173.659 233.74 174.14C233.3 174.621 232.73 175.017 232.03 175.331L233.047 175.754L232.507 176.812L227.94 174.637L228.352 173.83C228.977 174.086 229.635 174.231 230.32 174.265C231.005 174.299 231.65 174.178 232.257 173.903C232.862 173.627 233.35 173.127 233.72 172.404C234.115 171.631 234.222 170.93 234.045 170.302C233.867 169.674 233.517 169.236 232.995 168.987C232.455 168.731 231.922 168.68 231.4 168.84C230.875 168.997 230.35 169.275 229.825 169.674C229.297 170.07 228.762 170.505 228.22 170.979C227.615 171.486 226.992 171.962 226.355 172.412C225.715 172.859 225.05 173.158 224.355 173.311C223.662 173.461 222.922 173.349 222.14 172.977C221.27 172.562 220.657 172.003 220.302 171.302C219.947 170.599 219.802 169.852 219.872 169.06C219.942 168.26 220.162 167.503 220.53 166.778Z" fill="white"/>
<path id="Vector_19" d="M225.835 194.773C226.237 194.292 226.422 193.865 226.39 193.488C226.355 193.111 226.217 192.792 225.975 192.531C225.732 192.267 225.505 192.054 225.295 191.89L219.597 187.427C218.752 186.764 217.89 186.18 217.007 185.667C216.125 185.155 215.237 184.807 214.35 184.616C213.46 184.425 212.572 184.485 211.69 184.795C210.805 185.104 209.955 185.747 209.137 186.723C208.257 187.772 207.797 188.828 207.752 189.894C207.71 190.957 208.007 192.001 208.65 193.024C209.292 194.046 210.195 195.025 211.357 195.96L217.655 201.003C217.957 201.24 218.24 201.475 218.507 201.707C218.775 201.939 219.015 202.151 219.227 202.345C219.432 202.072 219.635 201.801 219.832 201.533C220.03 201.264 220.232 200.996 220.437 200.721L221.432 201.501L218.025 205.566L217.28 204.981C217.73 204.416 217.917 203.937 217.847 203.543C217.777 203.149 217.547 202.784 217.16 202.444C216.772 202.103 216.312 201.711 215.782 201.274L210.575 197.12C209.595 196.351 208.747 195.518 208.027 194.616C207.31 193.715 206.795 192.765 206.487 191.762C206.18 190.759 206.14 189.727 206.37 188.664C206.6 187.601 207.172 186.523 208.09 185.43C209.067 184.266 210.047 183.41 211.03 182.864C212.012 182.318 213.032 182.066 214.092 182.115C215.152 182.161 216.272 182.477 217.455 183.064C218.635 183.652 219.927 184.495 221.327 185.592L225.917 189.188C226.31 189.495 226.762 189.87 227.28 190.31C227.797 190.749 228.192 191.09 228.465 191.329C228.67 191.056 228.877 190.783 229.09 190.515C229.302 190.247 229.51 189.976 229.715 189.701L230.687 190.462L226.582 195.356L225.835 194.773Z" fill="white"/>
<path id="Vector_20" d="M196.362 197.282C197.255 196.53 198.255 196.071 199.36 195.899C200.465 195.728 201.59 195.87 202.732 196.327C203.875 196.784 204.937 197.557 205.917 198.647C206.96 199.807 207.642 201.037 207.96 202.335C208.277 203.633 208.237 204.897 207.84 206.124C207.442 207.354 206.7 208.423 205.617 209.334C205.135 209.74 204.6 210.083 204.017 210.361C203.432 210.641 202.932 210.82 202.515 210.897L205.13 213.807C205.332 214.034 205.525 214.252 205.702 214.464C205.88 214.674 206.08 214.935 206.307 215.242C206.557 215.008 206.805 214.774 207.05 214.544C207.292 214.314 207.54 214.082 207.792 213.846L208.595 214.737C207.95 215.279 207.477 215.726 207.177 216.076C206.877 216.429 206.675 216.724 206.567 216.963C206.46 217.202 206.4 217.413 206.387 217.599L205.75 218.133L193.36 204.353C193.157 204.126 192.96 203.894 192.77 203.654C192.58 203.415 192.375 203.142 192.147 202.835C191.897 203.07 191.65 203.304 191.405 203.534C191.162 203.763 190.915 203.995 190.662 204.232L189.86 203.34L193 200.704C193.235 200.88 193.442 201.047 193.625 201.204C193.805 201.363 193.98 201.521 194.147 201.678C194.162 200.895 194.352 200.119 194.717 199.353C195.082 198.587 195.632 197.898 196.362 197.282ZM196.507 198.985C196.025 199.391 195.657 199.935 195.41 200.617C195.16 201.298 195.055 201.972 195.087 202.639C195.255 202.797 195.425 202.971 195.597 203.161C195.77 203.352 195.957 203.56 196.16 203.787L201.635 209.921C202.215 209.88 202.767 209.744 203.295 209.515C203.82 209.285 204.302 208.986 204.742 208.616C205.475 208 205.927 207.26 206.1 206.395C206.272 205.53 206.167 204.611 205.785 203.642C205.402 202.673 204.75 201.704 203.83 200.738C203.025 199.899 202.187 199.246 201.32 198.782C200.452 198.318 199.607 198.091 198.78 198.101C197.952 198.113 197.197 198.408 196.507 198.985Z" fill="white"/>
<path id="Vector_21" d="M182.76 207.183C183.887 206.487 185.075 206.115 186.322 206.066C187.57 206.02 188.765 206.306 189.91 206.922C191.055 207.538 192.05 208.488 192.895 209.769C193.625 210.875 194.052 212.069 194.175 213.35C194.297 214.631 194.087 215.859 193.547 217.026C193.007 218.193 192.125 219.157 190.897 219.914C190.21 220.337 189.5 220.627 188.76 220.784C188.022 220.938 187.28 220.941 186.535 220.789C185.79 220.636 185.07 220.313 184.375 219.82C183.68 219.324 183.04 218.635 182.455 217.751L190.992 212.277C190.197 211.076 189.367 210.105 188.495 209.363C187.625 208.621 186.722 208.188 185.787 208.062C184.855 207.939 183.912 208.169 182.965 208.754C182.457 209.065 181.997 209.474 181.58 209.976C181.162 210.479 180.825 211.02 180.567 211.603C180.307 212.185 180.16 212.744 180.122 213.28L179.22 213.169C179.222 212.231 179.405 211.376 179.765 210.595C180.125 209.817 180.575 209.138 181.112 208.56C181.657 207.988 182.205 207.526 182.76 207.183ZM191.582 213.319L185.33 217.181C185.705 217.748 186.155 218.246 186.677 218.669C187.2 219.092 187.767 219.353 188.385 219.45C189.002 219.546 189.63 219.399 190.267 219.005C191.215 218.42 191.825 217.659 192.092 216.726C192.36 215.791 192.19 214.655 191.582 213.319Z" fill="white"/>
<path id="Vector_22" d="M166.305 215.562C167.815 216.999 169.332 218.43 170.857 219.851C172.382 221.272 173.897 222.725 175.402 224.204C175.885 224.665 176.362 225.132 176.84 225.603C177.317 226.076 177.785 226.557 178.247 227.046C178.71 227.534 179.175 228.022 179.647 228.505C179.567 228.314 179.495 228.121 179.425 227.925C179.355 227.729 179.28 227.536 179.202 227.345C178.962 226.712 178.675 225.948 178.34 225.059C178.005 224.167 177.65 223.215 177.272 222.2C176.897 221.183 176.512 220.173 176.117 219.162C175.722 218.152 175.352 217.2 175.005 216.306C174.865 215.914 174.722 215.528 174.572 215.141C174.425 214.754 174.3 214.387 174.2 214.044C173.865 214.194 173.535 214.341 173.207 214.486C172.88 214.631 172.55 214.779 172.215 214.928L171.742 213.778L176.907 211.794L177.262 212.657C176.71 212.889 176.35 213.164 176.177 213.483C176.005 213.802 175.96 214.157 176.037 214.551C176.115 214.945 176.232 215.354 176.385 215.779L180.772 227.896C180.897 228.251 181.027 228.604 181.162 228.957C181.297 229.31 181.422 229.653 181.54 229.991C181.857 229.849 182.175 229.711 182.497 229.578C182.817 229.445 183.137 229.308 183.455 229.165L183.917 230.289L179.78 231.879L170.86 223.288C170.41 222.855 169.965 222.42 169.525 221.985C169.085 221.55 168.635 221.115 168.177 220.687C167.72 220.257 167.262 219.817 166.805 219.368L166.75 219.39C166.745 219.936 166.742 220.588 166.74 221.345C166.737 222.101 166.745 222.751 166.757 223.29C166.752 225.511 166.717 227.749 166.652 230.006C166.587 232.261 166.565 234.576 166.58 236.951L162.577 238.488L162.222 237.626C162.68 237.469 163.015 237.244 163.23 236.951C163.442 236.657 163.527 236.277 163.48 235.811C163.435 235.344 163.247 234.76 162.917 234.059L157.322 222.435C157.165 222.152 157.027 221.871 156.915 221.594C156.8 221.316 156.695 221.062 156.602 220.835C156.285 220.977 155.962 221.115 155.632 221.253C155.302 221.391 154.98 221.528 154.662 221.671L154.19 220.521L160.247 218.193L160.602 219.056C160.05 219.288 159.69 219.578 159.52 219.926C159.35 220.274 159.327 220.687 159.45 221.163C159.572 221.639 159.79 222.203 160.097 222.853L164.185 231.27C164.317 231.541 164.45 231.814 164.582 232.087C164.715 232.357 164.847 232.63 164.98 232.904C165.112 233.174 165.245 233.447 165.377 233.72C165.382 233.578 165.387 233.423 165.392 233.261C165.397 233.097 165.395 232.928 165.385 232.749L165.492 215.876L166.305 215.562Z" fill="white"/>
<path id="Vector_23" d="M146.63 229.726L146.89 231.678L136.645 232.954L136.4 231.113L146.63 229.726Z" fill="white"/>
<path id="Vector_24" d="M125.862 223.457L125.792 224.382C125.055 224.368 124.54 224.496 124.245 224.767C123.952 225.037 123.772 225.429 123.702 225.941C123.635 226.453 123.575 227.036 123.525 227.691L122.602 239.81C122.575 240.185 122.537 240.543 122.49 240.888C122.445 241.234 122.4 241.546 122.36 241.823C122.71 241.828 123.06 241.836 123.41 241.843C123.76 241.848 124.11 241.855 124.46 241.862L124.365 243.097L117.835 242.633L117.905 241.708C118.622 241.739 119.132 241.616 119.435 241.338C119.737 241.057 119.925 240.668 119.99 240.163C120.055 239.658 120.117 239.073 120.167 238.399L121.085 226.364C121.122 225.859 121.162 225.429 121.197 225.074C121.235 224.718 121.282 224.421 121.337 224.182L115.905 223.88C114.685 223.812 113.732 224.119 113.047 224.805C112.362 225.489 111.957 226.654 111.832 228.3L110.845 228.23L111.462 222.435L125.862 223.457Z" fill="white"/>
<path id="Vector_25" d="M103.72 220.31C105.027 220.591 106.137 221.142 107.052 221.961C107.967 222.78 108.602 223.8 108.957 225.02C109.315 226.238 109.322 227.592 108.98 229.073C108.685 230.354 108.112 231.49 107.26 232.478C106.407 233.467 105.362 234.189 104.125 234.644C102.887 235.098 101.56 235.173 100.137 234.868C99.3424 234.697 98.6274 234.414 97.9924 234.02C97.3574 233.624 96.8324 233.119 96.4174 232.502C96.0024 231.886 95.7299 231.164 95.6024 230.34C95.4749 229.515 95.5274 228.59 95.7624 227.565L105.8 229.544C106.12 228.152 106.242 226.898 106.172 225.777C106.102 224.658 105.782 223.735 105.212 223.007C104.645 222.28 103.81 221.799 102.712 221.565C102.125 221.439 101.5 221.41 100.84 221.48C100.177 221.55 99.5424 221.702 98.9324 221.934C98.3224 222.169 97.8074 222.461 97.3899 222.814L96.8349 222.118C97.5224 221.458 98.2799 220.977 99.1049 220.673C99.9299 220.368 100.745 220.199 101.547 220.161C102.35 220.122 103.075 220.173 103.72 220.31ZM105.452 230.68L98.2074 229.126C98.0549 229.786 98.0099 230.443 98.0674 231.098C98.1249 231.753 98.3374 232.328 98.6999 232.819C99.0649 233.31 99.6149 233.636 100.355 233.793C101.452 234.03 102.44 233.909 103.315 233.433C104.19 232.959 104.902 232.041 105.452 230.68Z" fill="white"/>
<path id="Vector_26" d="M90.6774 216.574C91.5899 216.896 92.3549 217.299 92.9774 217.787C93.5999 218.275 94.0824 218.749 94.4249 219.208L94.6624 218.244L95.8099 218.648L94.2649 223.251L93.4174 222.954C93.6524 222.219 93.6874 221.497 93.5199 220.789C93.3524 220.081 93.0274 219.462 92.5449 218.935C92.0624 218.408 91.4749 218.019 90.7824 217.778C90.3074 217.611 89.8149 217.521 89.3024 217.512C88.7899 217.502 88.3224 217.596 87.8949 217.795C87.4699 217.993 87.1674 218.331 86.9874 218.807C86.8024 219.3 86.7974 219.764 86.9774 220.194C87.1549 220.627 87.4449 221.052 87.8449 221.473C88.2449 221.893 88.6874 222.306 89.1724 222.717C89.6399 223.121 90.1049 223.534 90.5649 223.955C91.0249 224.375 91.4299 224.827 91.7749 225.308C92.1199 225.789 92.3449 226.306 92.4449 226.859C92.5474 227.413 92.4699 228.027 92.2199 228.696C92.0799 229.066 91.8549 229.445 91.5424 229.834C91.2299 230.223 90.8274 230.557 90.3324 230.83C89.8374 231.106 89.2399 231.265 88.5424 231.309C87.8449 231.352 87.0299 231.212 86.0999 230.886C85.6074 230.712 85.0899 230.441 84.5474 230.071C84.0049 229.701 83.5349 229.196 83.1349 228.556L82.8124 229.581L81.6649 229.177L83.4049 224.552L84.2799 224.858C84.0849 225.489 84.0074 226.134 84.0474 226.797C84.0874 227.459 84.2824 228.065 84.6324 228.619C84.9824 229.17 85.5499 229.585 86.3324 229.861C87.1699 230.156 87.9049 230.185 88.5299 229.946C89.1574 229.706 89.5699 229.322 89.7674 228.795C89.9724 228.249 89.9649 227.732 89.7474 227.246C89.5274 226.76 89.1849 226.284 88.7199 225.823C88.2549 225.359 87.7499 224.892 87.2024 224.421C86.6149 223.897 86.0574 223.35 85.5274 222.785C84.9974 222.219 84.6174 221.613 84.3849 220.963C84.1549 220.313 84.1874 219.593 84.4874 218.797C84.8199 217.915 85.3274 217.268 86.0099 216.847C86.6949 216.429 87.4474 216.209 88.2699 216.19C89.0899 216.171 89.8924 216.299 90.6774 216.574Z" fill="white"/>
<path id="Vector_27" d="M67.845 226.461C67.6825 226.717 67.525 226.959 67.3675 227.186C67.2125 227.413 67.0175 227.676 66.78 227.976C67.0875 228.136 67.3925 228.295 67.69 228.45C67.99 228.604 68.2925 228.764 68.6 228.923L67.96 229.931C67.2325 229.499 66.6475 229.196 66.2 229.02C65.755 228.844 65.3975 228.742 65.13 228.716C64.8625 228.689 64.635 228.696 64.4475 228.74L63.7275 228.312L68.2625 221.168C67.515 221.34 66.745 221.362 65.95 221.234C65.1575 221.103 64.38 220.813 63.6175 220.361C62.56 219.733 61.7625 218.918 61.225 217.918C60.6875 216.917 60.46 215.813 60.5425 214.609C60.625 213.404 61.0625 212.178 61.8525 210.931C62.715 209.573 63.77 208.575 65.015 207.939C66.26 207.304 67.545 207.002 68.865 207.038C70.185 207.074 71.4075 207.425 72.5325 208.092C73.095 208.425 73.6475 208.892 74.19 209.489C74.7325 210.085 75.085 210.83 75.25 211.719L76.53 210.994L77.3975 211.509L67.845 226.461ZM72.835 213.976C73.3725 213.128 73.645 212.396 73.655 211.772C73.6625 211.151 73.5 210.62 73.165 210.177C72.83 209.737 72.415 209.37 71.9175 209.075C71.125 208.604 70.3 208.413 69.4475 208.503C68.595 208.592 67.7675 208.918 66.9625 209.486C66.1575 210.054 65.435 210.842 64.7975 211.85C64.1075 212.937 63.6425 213.974 63.4 214.965C63.16 215.956 63.17 216.852 63.4325 217.657C63.695 218.462 64.2575 219.119 65.1175 219.629C65.6625 219.953 66.2825 220.151 66.9775 220.221C67.6725 220.291 68.3425 220.233 68.985 220.042L72.835 213.976Z" fill="white"/>
<path id="Vector_28" d="M51.5974 215.448C51.9199 215.69 52.1024 216.028 52.1449 216.465C52.1874 216.9 52.0599 217.304 51.7624 217.674C51.4649 218.043 51.0849 218.263 50.6249 218.333C50.1649 218.403 49.7724 218.316 49.4499 218.075C49.0974 217.809 48.9074 217.459 48.8774 217.021C48.8474 216.584 48.9824 216.18 49.2799 215.81C49.5774 215.441 49.9549 215.223 50.4099 215.163C50.8649 215.097 51.2624 215.194 51.5974 215.448ZM64.1474 204.247C63.6724 203.889 63.2524 203.756 62.8824 203.848C62.5149 203.94 62.1524 204.177 61.7924 204.561C61.4349 204.945 61.0399 205.404 60.6124 205.936L56.5399 210.999C56.3499 211.236 56.1599 211.456 55.9724 211.659C55.7849 211.862 55.5574 212.101 55.2874 212.374C55.5749 212.565 55.8599 212.756 56.1399 212.942C56.4199 213.128 56.7049 213.319 56.9924 213.51L56.2424 214.443C55.5674 213.935 55.0249 213.575 54.6099 213.357C54.1949 213.14 53.8549 213.005 53.5924 212.949C53.3299 212.893 53.1024 212.879 52.9124 212.901L52.2474 212.4L59.4649 203.43C59.7024 203.133 59.9174 202.874 60.1099 202.649C60.3024 202.424 60.5224 202.205 60.7699 201.987C60.5124 201.818 60.2624 201.646 60.0199 201.477C59.7774 201.306 59.5274 201.136 59.2699 200.967L60.0024 200.056L64.6899 203.58L64.1474 204.247Z" fill="white"/>
<path id="Vector_29" d="M45.505 211.359C45.2899 211.574 45.0799 211.777 44.8749 211.966C44.6724 212.154 44.4225 212.369 44.1225 212.613C44.3875 212.836 44.6474 213.053 44.9049 213.268C45.1624 213.483 45.4224 213.701 45.6874 213.923L44.8349 214.771C44.2224 214.196 43.7199 213.776 43.3249 213.51C42.9299 213.244 42.6049 213.07 42.3499 212.986C42.0949 212.903 41.8724 212.862 41.6799 212.865L41.0749 212.297L47.1174 206.284C46.3499 206.294 45.5924 206.154 44.8474 205.859C44.1024 205.564 43.4099 205.117 42.7699 204.515C41.8799 203.679 41.2849 202.715 40.9874 201.625C40.6899 200.535 40.7174 199.411 41.0699 198.251C41.4224 197.094 42.1274 195.989 43.1824 194.94C44.3324 193.797 45.5874 193.048 46.9449 192.69C48.3049 192.333 49.6249 192.311 50.9049 192.625C52.1849 192.939 53.2999 193.541 54.2449 194.428C54.7174 194.873 55.1524 195.443 55.5474 196.141C55.9424 196.84 56.1174 197.64 56.0774 198.541L57.4899 198.104L58.2199 198.79L45.505 211.359ZM53.1999 200.233C53.9174 199.52 54.3499 198.86 54.4974 198.256C54.6474 197.652 54.6074 197.098 54.3799 196.596C54.1524 196.095 53.8299 195.648 53.4124 195.257C52.7449 194.629 51.9849 194.268 51.1324 194.174C50.2799 194.08 49.3974 194.225 48.4849 194.609C47.5724 194.993 46.69 195.61 45.8375 196.456C44.9175 197.369 44.2299 198.285 43.7699 199.198C43.3099 200.114 43.1174 200.992 43.1925 201.833C43.2675 202.674 43.6649 203.435 44.3899 204.114C44.8499 204.547 45.4099 204.868 46.0724 205.085C46.7349 205.301 47.3999 205.385 48.0724 205.337L53.1999 200.233Z" fill="white"/>
<path id="Vector_30" d="M47.1124 189.116C46.7299 188.669 46.3474 188.449 45.9674 188.461C45.5874 188.473 45.1799 188.628 44.7424 188.927C44.3074 189.227 43.8199 189.592 43.2824 190.022L32.6749 198.5C32.4349 198.691 32.2049 198.869 31.9824 199.036C31.7599 199.203 31.4874 199.389 31.1624 199.599C31.3999 199.848 31.6349 200.092 31.8649 200.334C32.0974 200.576 32.3299 200.82 32.5674 201.069L31.6249 201.823C31.0799 201.187 30.6274 200.716 30.2649 200.409C29.9024 200.102 29.5999 199.894 29.3549 199.785C29.1099 199.677 28.8924 199.614 28.7024 199.594L28.1649 198.966L42.7024 187.31C43.0024 187.071 43.2724 186.866 43.5174 186.697C43.7624 186.525 44.0299 186.361 44.3199 186.201C44.1074 185.981 43.9024 185.764 43.7024 185.546C43.5024 185.329 43.2974 185.109 43.0849 184.891L44.0049 184.157L47.7874 188.579L47.1124 189.116Z" fill="white"/>
<path id="Vector_31" d="M27.0274 190.745C27.2649 191.066 27.3399 191.441 27.2524 191.868C27.1649 192.299 26.9249 192.649 26.5299 192.922C26.1349 193.195 25.7074 193.301 25.2449 193.241C24.7824 193.181 24.4324 192.99 24.1949 192.671C23.9349 192.32 23.8549 191.931 23.9574 191.503C24.0599 191.076 24.3074 190.725 24.6999 190.452C25.0949 190.179 25.5199 190.075 25.9724 190.14C26.4274 190.208 26.7774 190.409 27.0274 190.745ZM42.3524 183.458C42.0024 182.985 41.6374 182.743 41.2574 182.729C40.8774 182.714 40.4599 182.842 40.0024 183.113C39.5449 183.383 39.0349 183.715 38.4649 184.106L33.0699 187.84C32.8174 188.014 32.5724 188.173 32.3324 188.316C32.0924 188.458 31.8024 188.625 31.4649 188.811C31.6849 189.075 31.8999 189.336 32.1124 189.589C32.3249 189.846 32.5424 190.104 32.7624 190.368L31.7674 191.056C31.2699 190.385 30.8549 189.889 30.5199 189.568C30.1849 189.246 29.8999 189.022 29.6649 188.896C29.4299 188.77 29.2174 188.693 29.0274 188.664L28.5349 188.002L38.0924 181.385C38.4074 181.167 38.6899 180.976 38.9399 180.815C39.1899 180.653 39.4674 180.503 39.7674 180.363C39.5699 180.131 39.3824 179.899 39.1974 179.667C39.0149 179.435 38.8249 179.203 38.6274 178.971L39.5974 178.299L43.0549 182.965L42.3524 183.458Z" fill="white"/>
<path id="Vector_32" d="M35.585 171.032C36.2475 172.178 36.575 173.367 36.565 174.597C36.555 175.827 36.2225 176.98 35.5675 178.055C34.9125 179.13 33.9575 180.005 32.705 180.684C31.3675 181.407 30.01 181.789 28.63 181.825C27.25 181.861 25.9825 181.581 24.825 180.984C23.6675 180.385 22.7525 179.505 22.0775 178.345C21.415 177.199 21.095 176.008 21.1225 174.768C21.15 173.529 21.485 172.371 22.1275 171.291C22.77 170.213 23.71 169.338 24.945 168.669C26.2475 167.963 27.5975 167.593 28.9875 167.559C30.38 167.526 31.66 167.806 32.825 168.4C33.9925 168.992 34.9125 169.872 35.585 171.032ZM34.455 171.387C33.9525 170.52 33.3 169.971 32.5 169.737C31.6975 169.505 30.8275 169.498 29.8875 169.717C28.9475 169.937 28.0275 170.288 27.13 170.774C26.3675 171.187 25.66 171.66 25.005 172.199C24.35 172.738 23.8075 173.316 23.375 173.935C22.945 174.553 22.6875 175.194 22.6025 175.853C22.5175 176.513 22.665 177.168 23.0425 177.823C23.535 178.674 24.1925 179.232 25.0125 179.498C25.8325 179.764 26.7225 179.802 27.6825 179.616C28.6425 179.43 29.5875 179.084 30.5175 178.582C31.5675 178.014 32.48 177.337 33.26 176.549C34.0375 175.764 34.5575 174.923 34.8175 174.029C35.0775 173.135 34.9575 172.255 34.455 171.387Z" fill="white"/>
<path id="Vector_33" d="M29.4949 158.62C29.6624 159.021 29.7749 159.451 29.8324 159.913C29.8899 160.377 29.8224 160.853 29.6299 161.343C29.4374 161.834 29.0574 162.31 28.4874 162.776C27.9174 163.243 27.0949 163.685 26.0149 164.108L18.1699 167.117L19.0374 169.113L17.8774 169.567C17.6699 169.123 17.3024 168.731 16.7724 168.39C16.2424 168.052 15.6124 167.808 14.8799 167.658C14.1474 167.511 13.4124 167.499 12.6699 167.629L12.2999 166.742L16.0749 165.263L14.2399 160.882L15.2924 160.471L17.1799 164.831L24.6999 161.948C25.5099 161.631 26.1699 161.297 26.6824 160.945C27.1949 160.592 27.5324 160.212 27.6949 159.804C27.8599 159.396 27.8424 158.958 27.6449 158.487C27.4399 158.001 27.1074 157.6 26.6399 157.286C26.1749 156.972 25.6199 156.749 24.9774 156.616L25.2749 155.679C26.0274 155.829 26.6549 156.024 27.1524 156.264C27.6499 156.503 28.0574 156.764 28.3749 157.044C28.6924 157.324 28.9349 157.605 29.1024 157.883C29.2799 158.168 29.4099 158.41 29.4949 158.62Z" fill="white"/>
<path id="Vector_34" d="M23.9549 145.998C23.8024 145.435 23.5499 145.082 23.1999 144.939C22.8499 144.794 22.4124 144.77 21.8874 144.864C21.3624 144.958 20.7599 145.091 20.0849 145.263L16.1449 146.263C14.5299 146.674 13.3899 147.23 12.7174 147.933C12.0474 148.637 11.8649 149.521 12.1749 150.587C12.3749 151.254 12.7249 151.868 13.2174 152.431C13.7124 152.994 14.2649 153.41 14.8799 153.68L23.1824 151.573C23.5574 151.479 23.8924 151.401 24.1899 151.346C24.4849 151.29 24.7999 151.249 25.1349 151.222C25.0374 150.937 24.9449 150.655 24.8599 150.377C24.7749 150.099 24.6824 149.816 24.5849 149.531L25.7399 149.238L27.2474 154.789L26.4024 155.005C26.2499 154.441 25.9974 154.089 25.6474 153.946C25.2974 153.803 24.8574 153.774 24.3299 153.859C23.8024 153.946 23.1999 154.074 22.5249 154.246L9.21242 157.624C8.91242 157.699 8.62492 157.769 8.34992 157.827C8.07492 157.888 7.74492 157.948 7.35992 158.006C7.46742 158.327 7.57492 158.644 7.67742 158.958C7.78242 159.27 7.88992 159.589 7.99742 159.91L6.81492 160.21C6.59742 159.413 6.39242 158.801 6.19492 158.376C5.99992 157.95 5.81492 157.639 5.63992 157.441C5.46492 157.242 5.29492 157.097 5.12992 157.003L4.91492 156.215L13.4999 154.033C13.0349 153.724 12.5999 153.356 12.1899 152.926C11.7824 152.496 11.4224 152.034 11.1074 151.544C10.7924 151.051 10.5674 150.551 10.4299 150.043C10.0024 148.465 10.2024 147.196 11.0374 146.239C11.8699 145.282 13.3624 144.519 15.5174 143.953L20.7449 142.597C21.1199 142.503 21.4549 142.423 21.7474 142.358C22.0399 142.293 22.3549 142.247 22.6874 142.22C22.5899 141.935 22.4974 141.652 22.4124 141.375C22.3274 141.097 22.2349 140.814 22.1374 140.529L23.2924 140.236L24.7999 145.787L23.9549 145.998Z" fill="white"/>
<path id="Vector_35" d="M5.49745 132.895L2.78495 136.351C2.47745 136.742 2.18245 136.977 1.89745 137.051C1.61245 137.129 1.36995 137.126 1.16495 137.044C0.959948 136.962 0.824948 136.887 0.759948 136.819C0.714948 136.769 0.639947 136.653 0.529947 136.476C0.422447 136.3 0.387448 136.078 0.424948 135.809C0.462448 135.541 0.689948 135.253 1.10245 134.944L4.74245 132.182L5.49745 132.895ZM22.8874 132.387C23.0324 133.673 22.8499 134.867 22.3399 135.969C21.8299 137.071 21.0349 137.979 19.9549 138.697C18.8749 139.415 17.5549 139.857 15.9924 140.022C14.6424 140.164 13.3474 140.005 12.1024 139.541C10.8599 139.077 9.81745 138.354 8.97245 137.366C8.12745 136.377 7.62745 135.188 7.46995 133.789C7.38245 133.006 7.42995 132.262 7.61245 131.554C7.79495 130.845 8.12245 130.203 8.59495 129.625C9.06745 129.047 9.68495 128.567 10.4524 128.185C11.2199 127.803 12.1424 127.554 13.2224 127.44L14.5074 137.267C15.9724 137.112 17.2424 136.822 18.3174 136.397C19.3924 135.971 20.1924 135.382 20.7224 134.628C21.2524 133.874 21.4549 132.955 21.3324 131.875C21.2674 131.297 21.0949 130.717 20.8124 130.133C20.5324 129.55 20.1799 129.016 19.7524 128.533C19.3274 128.049 18.8749 127.672 18.3949 127.402L18.8974 126.669C19.7649 127.088 20.4799 127.624 21.0424 128.281C21.6049 128.939 22.0349 129.63 22.3299 130.352C22.6324 131.075 22.8149 131.754 22.8874 132.387ZM13.2849 137.308L12.4799 130.176C11.7849 130.249 11.1274 130.418 10.5024 130.681C9.87745 130.945 9.38495 131.322 9.01995 131.815C8.65495 132.305 8.51495 132.914 8.59745 133.642C8.71995 134.724 9.15495 135.587 9.89995 136.235C10.6474 136.882 11.7749 137.24 13.2849 137.308Z" fill="white"/>
<path id="Vector_36" d="M29.39 116.51L28.5175 116.481C28.5375 115.901 28.4025 115.492 28.11 115.258C27.8175 115.023 27.405 114.878 26.8725 114.823C26.34 114.767 25.725 114.729 25.0275 114.707L20.665 114.564C21.23 115.072 21.66 115.686 21.955 116.408C22.25 117.131 22.3825 117.943 22.35 118.842C22.31 120.004 21.9675 121.053 21.3225 121.988C20.6775 122.924 19.79 123.656 18.655 124.18C17.52 124.707 16.2075 124.944 14.7125 124.896C13.085 124.842 11.68 124.473 10.5 123.786C9.32001 123.1 8.41501 122.199 7.78501 121.08C7.15501 119.961 6.86251 118.738 6.91001 117.406C6.93751 116.618 7.07001 115.906 7.30501 115.265C7.54001 114.625 7.66751 114.071 7.68251 113.602C7.69001 113.397 7.66251 113.204 7.60001 113.023C7.53751 112.841 7.42251 112.674 7.25251 112.52L7.28001 111.732L26.4475 112.331C26.835 112.343 27.18 112.36 27.48 112.38C27.78 112.399 28.095 112.442 28.4225 112.51C28.4125 112.21 28.41 111.913 28.41 111.623C28.41 111.333 28.405 111.036 28.3975 110.736L29.59 110.775L29.39 116.51ZM20.96 117.781C20.9825 117.162 20.8275 116.563 20.5 115.978C20.17 115.396 19.7425 114.907 19.2125 114.514L11.5925 114.265C10.8175 114.238 10.17 114.32 9.64751 114.511C9.12751 114.702 8.72751 115.026 8.45001 115.485C8.17251 115.944 8.01751 116.577 7.99001 117.385C7.95751 118.284 8.19251 119.071 8.69251 119.743C9.19251 120.417 9.90751 120.947 10.835 121.333C11.7625 121.72 12.8575 121.935 14.1175 121.976C15.3575 122.017 16.49 121.88 17.51 121.565C18.53 121.251 19.3525 120.773 19.9775 120.125C20.6 119.482 20.93 118.699 20.96 117.781Z" fill="white"/>
<path id="Vector_37" d="M23.8674 104.185C23.6749 105.18 23.3224 105.98 22.8099 106.584C22.2974 107.189 21.5524 107.578 20.5699 107.754C19.5874 107.931 18.3174 107.875 16.7524 107.592L11.6599 106.671C11.3549 106.616 11.0499 106.558 10.7474 106.493C10.4449 106.427 10.1349 106.338 9.82245 106.224C9.77995 106.541 9.73245 106.862 9.67995 107.186C9.62745 107.51 9.57995 107.831 9.53745 108.148L8.36495 107.935L8.52995 107.077C8.68245 106.285 8.71495 105.695 8.62245 105.306C8.52995 104.917 8.40745 104.605 8.25745 104.366L8.41245 103.564L17.1374 105.142C18.7774 105.439 20.0474 105.434 20.9449 105.13C21.8424 104.825 22.3874 104.127 22.5799 103.037C22.6974 102.334 22.6024 101.623 22.2949 100.91C21.9899 100.197 21.5774 99.593 21.0624 99.0976L13.7124 97.7685C13.2549 97.6863 12.8599 97.6041 12.5299 97.5268C12.1999 97.4495 11.8774 97.3528 11.5649 97.2368C11.5199 97.5727 11.4699 97.9062 11.4149 98.2397C11.3599 98.5732 11.3099 98.9067 11.2649 99.2426L10.0924 99.03L10.2574 98.172C10.4099 97.3794 10.4424 96.7897 10.3499 96.4006C10.2574 96.0115 10.1349 95.6998 9.98495 95.4605L10.1399 94.6582L20.9474 96.6423C21.2524 96.6979 21.6799 96.7849 22.2299 96.9033C22.7799 97.0217 23.2399 97.1353 23.6149 97.2392C23.6599 96.9033 23.7049 96.5698 23.7499 96.2339C23.7949 95.898 23.8399 95.5645 23.8849 95.2285L25.0849 95.446L24.3199 99.3997C23.9849 99.3973 23.6724 99.3828 23.3799 99.3586C23.0874 99.3345 22.8174 99.3103 22.5649 99.2837C23.0449 99.9628 23.4224 100.746 23.6924 101.635C23.9674 102.524 24.0249 103.375 23.8674 104.185Z" fill="white"/>
<path id="Vector_38" d="M28.1825 88.2226C27.745 89.4455 27.0525 90.4484 26.1025 91.2338C25.1525 92.0192 24.0325 92.5122 22.74 92.7128C21.4475 92.9158 20.0575 92.7684 18.5725 92.2706C17.29 91.8404 16.1875 91.1613 15.27 90.2285C14.3525 89.2956 13.73 88.2106 13.405 86.9684C13.08 85.7286 13.155 84.443 13.63 83.1138C13.8975 82.3695 14.27 81.7146 14.7475 81.1515C15.2275 80.5884 15.8075 80.1413 16.49 79.8151C17.1725 79.4888 17.945 79.31 18.805 79.281C19.6675 79.252 20.6125 79.4091 21.6375 79.7522L18.4525 89.1652C19.845 89.6316 21.1225 89.895 22.28 89.9554C23.44 90.0158 24.425 89.8152 25.2375 89.3512C26.05 88.8896 26.64 88.1429 27.0075 87.1158C27.205 86.5672 27.305 85.9703 27.31 85.3275C27.315 84.6846 27.2325 84.0563 27.06 83.4425C26.89 82.8311 26.6475 82.3018 26.3325 81.8596L27.11 81.4052C27.7075 82.1423 28.1175 82.9229 28.3325 83.7494C28.55 84.5759 28.6325 85.3782 28.58 86.154C28.5325 86.9297 28.3975 87.6209 28.1825 88.2226ZM17.3275 88.6963L19.755 81.9176C19.095 81.6976 18.425 81.5768 17.745 81.5575C17.065 81.5381 16.45 81.6759 15.905 81.9683C15.36 82.2607 14.9625 82.7537 14.715 83.4449C14.3475 84.472 14.3575 85.4338 14.745 86.328C15.13 87.2221 15.9925 88.0124 17.3275 88.6963Z" fill="white"/>
<path id="Vector_39" d="M33.5199 76.1198C33.0849 76.9584 32.5824 77.6495 32.0099 78.1884C31.4374 78.7274 30.8949 79.1382 30.3824 79.4161L31.3449 79.7569L30.7974 80.813L26.2424 78.7999L26.6449 78.0193C27.3749 78.331 28.1124 78.4446 28.8574 78.3649C29.6049 78.2851 30.2749 78.0434 30.8749 77.6423C31.4724 77.2387 31.9374 76.7191 32.2674 76.0811C32.4924 75.6461 32.6399 75.1821 32.7099 74.6915C32.7799 74.2009 32.7349 73.7394 32.5799 73.3068C32.4249 72.8742 32.1124 72.5455 31.6424 72.3184C31.1574 72.0839 30.6824 72.026 30.2174 72.1492C29.7524 72.27 29.2824 72.4996 28.8049 72.8355C28.3274 73.1714 27.8499 73.5484 27.3724 73.969C26.9049 74.3725 26.4274 74.7713 25.9399 75.1652C25.4549 75.5591 24.9449 75.895 24.4099 76.1729C23.8774 76.4509 23.3199 76.6055 22.7374 76.6394C22.1574 76.6732 21.5349 76.5306 20.8774 76.2116C20.5124 76.0352 20.1474 75.7766 19.7849 75.431C19.4199 75.0879 19.1249 74.6625 18.8999 74.155C18.6749 73.6475 18.5799 73.0554 18.6124 72.3812C18.6474 71.7069 18.8849 70.9409 19.3274 70.0854C19.5624 69.6334 19.8999 69.167 20.3424 68.6885C20.7849 68.21 21.3574 67.8161 22.0599 67.5068L21.0449 67.079L21.5924 66.0229L26.1474 68.2245L25.7299 69.0293C25.1049 68.7707 24.4499 68.6209 23.7649 68.5822C23.0799 68.5459 22.4324 68.6619 21.8249 68.935C21.2174 69.2081 20.7274 69.7059 20.3549 70.4261C19.9549 71.197 19.8424 71.8979 20.0174 72.5262C20.1899 73.1545 20.5374 73.5944 21.0599 73.8481C21.5974 74.1091 22.1299 74.1599 22.6549 74.0052C23.1799 73.8505 23.7074 73.575 24.2349 73.1811C24.7649 72.7872 25.3024 72.3546 25.8474 71.8858C26.4549 71.3831 27.0799 70.9095 27.7224 70.4648C28.3649 70.0201 29.0324 69.7253 29.7274 69.5779C30.4224 69.4304 31.1599 69.5464 31.9399 69.9234C32.8074 70.3439 33.4174 70.9046 33.7674 71.6079C34.1199 72.3135 34.2574 73.0603 34.1849 73.8529C34.1149 74.6408 33.8924 75.3996 33.5199 76.1198Z" fill="white"/>
<path id="Vector_40" d="M28.3749 48.1009C27.9699 48.5794 27.7824 49.0072 27.8124 49.3842C27.8449 49.7612 27.9799 50.0802 28.2199 50.3436C28.4599 50.607 28.6874 50.8221 28.8949 50.9888L34.5649 55.4838C35.4049 56.1508 36.2649 56.7405 37.1449 57.2553C38.0249 57.77 38.9099 58.1253 39.7974 58.321C40.6849 58.5168 41.5724 58.4612 42.4574 58.1567C43.3424 57.8522 44.1974 57.2142 45.0224 56.2427C45.9074 55.1987 46.3749 54.145 46.4249 53.0793C46.4749 52.0159 46.1824 50.9695 45.5449 49.9448C44.9099 48.9202 44.0124 47.9366 42.8549 46.9941L36.5874 41.9167C36.2874 41.6798 36.0049 41.443 35.7399 41.2086C35.4749 40.9742 35.2349 40.7615 35.0224 40.5682C34.8149 40.8413 34.6124 41.1119 34.4124 41.3753C34.2124 41.6412 34.0099 41.9094 33.8024 42.1825L32.8124 41.3971L36.2499 37.354L36.9924 37.9413C36.5399 38.5043 36.3474 38.9828 36.4149 39.3768C36.4824 39.7707 36.7099 40.138 37.0974 40.4812C37.4849 40.8243 37.9399 41.2158 38.4699 41.6581L43.6549 45.8389C44.6299 46.6123 45.4749 47.4508 46.1874 48.3547C46.8999 49.2609 47.4074 50.2131 47.7099 51.216C48.0124 52.2189 48.0449 53.2533 47.8099 54.3142C47.5724 55.3751 46.9949 56.4505 46.0724 57.538C45.0874 58.698 44.1024 59.5487 43.1174 60.09C42.1324 60.6313 41.1099 60.8754 40.0499 60.8223C38.9899 60.7715 37.8724 60.4477 36.6949 59.8532C35.5174 59.2587 34.2324 58.4104 32.8349 57.3036L28.2674 53.6834C27.8774 53.3741 27.4249 52.9971 26.9099 52.5548C26.3949 52.1102 26.0024 51.7694 25.7299 51.5278C25.5224 51.8008 25.3124 52.0715 25.0999 52.3373C24.8874 52.6056 24.6749 52.8738 24.4699 53.1469L23.5024 52.3808L27.6349 47.5088L28.3749 48.1009Z" fill="white"/>
<path id="Vector_41" d="M57.8599 45.7521C56.9624 46.4988 55.9599 46.9532 54.8524 47.1175C53.7449 47.2818 52.6224 47.1344 51.4824 46.6728C50.3424 46.2112 49.2849 45.4331 48.3124 44.3359C47.2749 43.1687 46.6024 41.9361 46.2899 40.6384C45.9799 39.3382 46.0274 38.0767 46.4324 36.8491C46.8374 35.6214 47.5849 34.5557 48.6749 33.6518C49.1599 33.2482 49.6949 32.9099 50.2824 32.632C50.8674 32.3565 51.3699 32.1801 51.7899 32.1027L49.1924 29.181C48.9899 28.9538 48.7999 28.7339 48.6249 28.5212C48.4499 28.3086 48.2499 28.0476 48.0249 27.7382C47.7724 27.9727 47.5249 28.2047 47.2799 28.4318C47.0349 28.659 46.7874 28.891 46.5349 29.1254L45.7374 28.2288C46.3849 27.6899 46.8599 27.2476 47.1624 26.8972C47.4649 26.5468 47.6699 26.252 47.7774 26.0152C47.8849 25.7759 47.9474 25.5656 47.9624 25.3796L48.6024 24.8479L60.9124 38.693C61.1149 38.9202 61.3099 39.1546 61.4974 39.3938C61.6849 39.6331 61.8899 39.9086 62.1149 40.2179C62.3674 39.9835 62.6149 39.7539 62.8599 39.5243C63.1049 39.2971 63.3524 39.0652 63.6049 38.8307L64.4024 39.7273L61.2474 42.3494C61.0124 42.173 60.8074 42.0038 60.6274 41.8443C60.4474 41.6848 60.2724 41.5253 60.1074 41.3682C60.0874 42.1512 59.8924 42.9246 59.5249 43.6882C59.1474 44.4543 58.5949 45.1407 57.8599 45.7521ZM57.7249 44.0483C58.2099 43.6447 58.5799 43.1034 58.8324 42.4243C59.0849 41.7452 59.1974 41.071 59.1649 40.404C58.9974 40.2445 58.8299 40.0705 58.6599 39.8796C58.4899 39.6887 58.3024 39.4784 58.0999 39.2512L52.6599 33.0887C52.0799 33.125 51.5249 33.2579 50.9999 33.4851C50.4724 33.7122 49.9899 34.0095 49.5474 34.3768C48.8124 34.9882 48.3549 35.7253 48.1774 36.5905C47.9999 37.4557 48.0999 38.374 48.4774 39.3455C48.8549 40.317 49.5024 41.2885 50.4149 42.26C51.2149 43.1034 52.0474 43.7583 52.9124 44.2272C53.7774 44.696 54.6224 44.928 55.4474 44.9207C56.2749 44.9135 57.0324 44.6211 57.7249 44.0483Z" fill="white"/>
<path id="Vector_42" d="M71.5175 35.9258C70.385 36.6169 69.195 36.9818 67.95 37.0229C66.7025 37.064 65.51 36.7716 64.3675 36.1481C63.225 35.5246 62.2375 34.57 61.3975 33.2868C60.6725 32.1775 60.2525 30.9813 60.1375 29.698C60.0225 28.4148 60.2375 27.1919 60.785 26.0271C61.3325 24.8623 62.22 23.9028 63.45 23.1537C64.14 22.7332 64.8525 22.448 65.5925 22.2958C66.33 22.1435 67.0725 22.1459 67.8175 22.303C68.5625 22.4601 69.28 22.7863 69.9725 23.2842C70.665 23.782 71.3 24.4756 71.88 25.3625L63.31 30.7903C64.0975 31.9963 64.925 32.9726 65.79 33.7193C66.655 34.4661 67.555 34.9035 68.49 35.034C69.4225 35.1645 70.365 34.9373 71.3175 34.3573C71.825 34.048 72.29 33.642 72.71 33.1418C73.13 32.6415 73.47 32.1026 73.7325 31.5202C73.995 30.9378 74.1475 30.3819 74.1875 29.8454L75.09 29.9614C75.0825 30.8967 74.895 31.7546 74.53 32.5303C74.165 33.3085 73.7125 33.9828 73.17 34.5579C72.625 35.1283 72.075 35.5874 71.5175 35.9258ZM62.7325 29.7439L69.0075 25.9159C68.635 25.3456 68.19 24.8478 67.67 24.42C67.15 23.9947 66.5825 23.7313 65.9675 23.6298C65.35 23.5283 64.7225 23.6733 64.0825 24.0648C63.13 24.6448 62.5175 25.4012 62.2425 26.334C61.9675 27.2668 62.13 28.4027 62.7325 29.7439Z" fill="white"/>
<path id="Vector_43" d="M88.0275 27.6342C86.525 26.1891 85.0175 24.7512 83.5025 23.3205C81.9875 21.8898 80.48 20.4302 78.9825 18.9439C78.5025 18.4799 78.0275 18.0111 77.555 17.535C77.0825 17.0589 76.615 16.5756 76.1575 16.085C75.6975 15.5944 75.235 15.1038 74.7675 14.6181C74.845 14.8114 74.9175 15.0047 74.9875 15.2005C75.055 15.3962 75.13 15.5896 75.2075 15.7829C75.4425 16.4185 75.7275 17.1822 76.0575 18.0739C76.3875 18.9657 76.7375 19.9227 77.1075 20.9401C77.4775 21.9575 77.8575 22.9725 78.245 23.9827C78.6325 24.9952 78.9975 25.9474 79.34 26.8464C79.4775 27.2379 79.62 27.627 79.765 28.0137C79.91 28.4027 80.0325 28.7677 80.1325 29.1132C80.4675 28.9658 80.8 28.8208 81.1275 28.6758C81.455 28.5332 81.7875 28.3858 82.1225 28.2384L82.59 29.3912L77.4125 31.3487L77.0625 30.4835C77.615 30.2539 77.98 29.9808 78.1525 29.6642C78.325 29.3477 78.375 28.9924 78.3 28.5961C78.2225 28.2022 78.11 27.7913 77.9575 27.366L73.64 15.2247C73.5175 14.8694 73.39 14.5142 73.2575 14.1613C73.125 13.8085 73 13.4629 72.885 13.1246C72.5675 13.2647 72.2475 13.4001 71.925 13.533C71.6025 13.6659 71.2825 13.8012 70.965 13.9414L70.51 12.8152L74.6575 11.2468L83.525 19.8864C83.9725 20.3214 84.415 20.7588 84.8525 21.1962C85.29 21.6337 85.7375 22.0711 86.1925 22.5012C86.6475 22.9338 87.1025 23.3761 87.5575 23.828L87.6125 23.8087C87.62 23.2625 87.6275 22.61 87.6325 21.8536C87.6375 21.0972 87.6375 20.4471 87.6275 19.9082C87.645 17.6872 87.6925 15.4494 87.77 13.1947C87.8475 10.9399 87.885 8.62474 87.8825 6.25158L91.8925 4.73633L92.2425 5.60149C91.785 5.75616 91.4475 5.97849 91.2325 6.27091C91.0175 6.56333 90.93 6.94275 90.975 7.41158C91.0175 7.878 91.2025 8.46283 91.5275 9.16608L97.055 20.8192C97.21 21.102 97.345 21.3847 97.46 21.6627C97.5725 21.943 97.675 22.1967 97.7675 22.4215C98.085 22.2813 98.41 22.1436 98.74 22.0082C99.07 21.8729 99.395 21.7352 99.7125 21.595L100.18 22.7477L94.11 25.0436L93.76 24.1784C94.3125 23.9488 94.675 23.6612 94.8475 23.3132C95.02 22.9652 95.045 22.5544 94.925 22.0759C94.805 21.5974 94.5925 21.0343 94.2875 20.3842L90.2475 11.9428C90.1175 11.6697 89.985 11.3991 89.855 11.126C89.725 10.8529 89.5925 10.5798 89.4625 10.3092C89.3325 10.0361 89.2 9.76541 89.07 9.49233C89.065 9.63491 89.06 9.78716 89.0525 9.95149C89.045 10.1158 89.0475 10.285 89.0575 10.4638L88.8525 27.3346L88.0275 27.6342Z" fill="white"/>
<path id="Vector_44" d="M107.785 13.5791L107.535 11.624L117.787 10.4036L118.022 12.2451L107.785 13.5791Z" fill="white"/>
</g>
</g>
</svg>
