<svg width="156" height="60" viewBox="0 0 156 60" fill="none" xmlns="http://www.w3.org/2000/svg">
<g id="logo">
<path id="Vector" d="M131.98 28.9078V37.6366L131.998 37.9614L131.661 37.9401H127.424L127.09 37.9614L127.108 37.6366V29.6778C127.108 27.3548 125.771 26.2477 124.119 26.2477C122.473 26.2477 121.139 27.3548 121.139 29.6778V37.6366L121.154 37.9614L120.82 37.9401H116.582L116.245 37.9614L116.269 37.6366V29.6778C116.269 25.3438 119.783 21.8315 124.118 21.8315C125.965 21.8315 127.662 22.4747 129.002 23.5359L129.098 23.8271L129.19 23.5417C129.33 23.3903 129.467 23.2505 129.621 23.114L129.907 23.0441L129.64 22.9289C128.482 21.6342 127.765 19.9324 127.765 18.0669V0.66429L127.75 0.331055L128.088 0.345937H132.322L132.656 0.331055L132.646 0.66429V18.0676C132.646 19.957 133.726 20.8551 135.072 20.8551C136.409 20.8551 137.496 19.9576 137.496 18.0676V0.66429L137.478 0.331055L137.818 0.345937H142.058L142.389 0.331055L142.365 0.66429V18.0676C142.365 19.9331 141.654 21.6342 140.5 22.9296L140.23 23.0448L140.524 23.1146C140.67 23.2512 140.809 23.3903 140.949 23.5424L141.044 23.8277L141.132 23.5365C142.48 22.4747 144.175 21.8322 146.019 21.8322C150.359 21.8322 153.871 25.3444 153.871 29.6784V37.6372L153.895 37.9621L153.557 37.9407H149.321L148.983 37.9621L149.004 37.6372V29.6784C149.004 27.3555 147.667 26.2484 146.018 26.2484C144.366 26.2484 143.03 27.3555 143.03 29.6784V37.6372L143.048 37.9621L142.717 37.9407H138.476L138.142 37.9621L138.167 37.6372V28.9084C138.167 26.5033 136.775 25.3567 135.072 25.3567C133.362 25.3561 131.98 26.5026 131.98 28.9078Z" fill="#0059AB"/>
<path id="Vector_2" d="M36.4455 59.4191H40.9316V58.9403L39.2675 58.5546V43.3105H34.6596V43.836L36.4455 44.3303V49.4744C35.662 48.819 34.4769 48.2819 32.9009 48.2819C30.1035 48.2819 28.0383 50.7388 28.0383 54.1475C28.0383 57.6358 29.9247 59.6675 32.9223 59.6675C34.3861 59.6675 35.5985 59.1001 36.4461 58.3327L36.4455 59.4191ZM36.4455 57.3446C35.8228 57.8364 35.0575 58.2544 33.8937 58.2544C32.3566 58.2544 31.0418 57.1414 31.0418 54.1203C31.0418 51.0112 32.1168 49.5708 33.8729 49.5708C35.0484 49.5708 35.8778 49.9921 36.4455 50.6268V57.3446Z" fill="#051922"/>
<path id="Vector_3" d="M78.6193 43.3105V43.8023L76.9364 44.2507V58.4847L78.6193 58.915V59.4191H71.6157V58.9001L73.8597 58.4847V47.1444L68.6297 59.4191H67.4114L62.2722 47.0965V58.4847L64.4319 58.8458V59.4191H59.3659V58.915L60.8051 58.5061V44.2268L59.3659 43.8023V43.3105H63.876L68.8908 55.6403L74.0424 43.3105H78.6193Z" fill="#051922"/>
<path id="Vector_4" d="M85.6598 48.2822C82.4859 48.2822 79.6334 50.4874 79.6334 53.9757C79.6334 57.3598 82.5098 59.6685 85.6598 59.6685C88.8278 59.6685 91.7043 57.3605 91.7043 53.9757C91.705 50.4874 88.8278 48.2822 85.6598 48.2822ZM85.6598 49.0801C87.5914 49.0801 88.6062 51.2335 88.6062 53.9537C88.6062 56.65 87.5921 58.8791 85.6598 58.8791C83.7527 58.8791 82.7107 56.65 82.7107 53.9537C82.7107 51.2574 83.7527 49.0801 85.6598 49.0801Z" fill="#051922"/>
<path id="Vector_5" d="M144.005 51.6485V53.505L141.496 53.6285C139.079 53.7017 137.566 55.0152 137.566 56.8231C137.566 58.6452 138.927 59.6675 140.734 59.6675C142.22 59.6675 143.286 58.9396 144.006 58.4297V59.4184H148.112V58.9396L146.775 58.554V51.1781C146.775 49.5708 145.718 48.2812 143.313 48.2812C140.855 48.2812 139.322 48.9788 138.456 49.3521V51.897H139.677L140.084 49.774C140.367 49.6582 141.129 49.3948 142.344 49.4945C143.805 49.6161 143.978 50.6327 144.005 51.6485ZM144.005 57.6118C143.431 57.9845 142.938 58.3573 142.043 58.3573C140.61 58.3786 140.212 57.4902 140.212 56.4465C140.212 55.3847 140.931 54.6632 142.247 54.451L144.006 54.2484V57.6118H144.005Z" fill="#051922"/>
<path id="Vector_6" d="M155.52 58.9403V59.4191H149.384V58.9403L151.049 58.5546V44.254L149.384 43.8327V43.3105H153.871V58.5546L155.52 58.9403Z" fill="#051922"/>
<path id="Vector_7" d="M13.4739 22.8198L11.0711 22.3526V21.8311H16.6504V22.3222L14.9403 22.8198V32.5677C14.9403 36.6202 12.7261 38.267 8.1972 38.267C3.54715 38.267 1.66082 36.4869 1.66082 32.8201V22.7466L0 22.3222V21.8311H7.13448V22.3772L4.71096 22.7958V32.6648C4.71096 35.6555 5.73156 37.1269 8.84779 37.1269C12.2284 37.1269 13.4739 35.6011 13.4739 32.4008V22.8198Z" fill="#051922"/>
<path id="Vector_8" d="M23.0746 37.4699V37.9403H17.0547V37.4699L18.6883 37.0758V27.8682L17.2031 27.4437V26.9338H21.5162V28.6142C22.0113 28.1956 23.5723 26.8096 25.5772 26.8096C27.6612 26.8096 28.7239 27.9685 28.7239 30.0002V37.0493L30.3096 37.4524V37.9409H24.4652V37.4524L25.9258 37.0765V30.3212C25.9258 29.2535 25.6012 28.3159 24.2676 28.3159C23.074 28.3159 21.859 29.1558 21.5155 29.381V37.0758L23.0746 37.4699Z" fill="#051922"/>
<path id="Vector_9" d="M35.7774 37.0753L37.4142 37.4693V37.9391H31.2913V37.4693L32.9553 37.0753V27.867L31.4675 27.4425V26.9326H35.7774V37.0753Z" fill="#051922"/>
<path id="Vector_10" d="M35.929 23.1418C35.929 23.9881 35.1877 24.6766 34.2947 24.6766C33.4264 24.6766 32.6579 23.9881 32.6579 23.1418C32.6579 22.3019 33.4264 21.583 34.2947 21.583C35.1883 21.583 35.929 22.3019 35.929 23.1418Z" fill="#051922"/>
<path id="Vector_11" d="M84.4545 37.0753L86.0946 37.4693V37.9391H79.9651V37.4693L81.6299 37.0753V27.867L80.1446 27.4425V26.9326H84.4545V37.0753Z" fill="#051922"/>
<path id="Vector_12" d="M84.597 23.1418C84.597 23.9881 83.8557 24.6766 82.9693 24.6766C82.1003 24.6766 81.3292 23.9881 81.3292 23.1418C81.3292 22.3019 82.1003 21.583 82.9693 21.583C83.8557 21.583 84.597 22.3019 84.597 23.1418Z" fill="#051922"/>
<path id="Vector_13" d="M38.3104 27.6968L37.5147 27.3752V26.9326H42.8697V27.3752L41.1564 27.8003L43.6169 34.5L46.0527 27.746L44.5643 27.3752V26.9326H48.2339V27.3752L47.3409 27.8003L43.1432 38.1151H42.2315L38.3104 27.6968Z" fill="#051922"/>
<path id="Vector_14" d="M51.4992 31.7554H58.7859C58.7101 28.7135 57.1244 26.8086 53.9292 26.8086C50.7792 26.8086 48.4529 29.5262 48.4529 32.4982C48.4529 35.9347 50.7034 38.1852 53.9538 38.1852C56.7298 38.1852 58.1638 37.0988 59.0082 36.4802L58.5371 35.7374C57.893 36.1379 56.5989 37.0056 54.4735 36.8781C52.3429 36.7293 51.2737 34.5002 51.4992 31.7554ZM56.0092 30.8877H51.6229C51.8718 29.0073 52.6131 27.6181 53.9285 27.6181C55.417 27.6181 55.9062 29.3528 56.0092 30.8877Z" fill="#051922"/>
<path id="Vector_15" d="M77.7477 27.3728L77.5014 30.0717H76.4899L76.2411 28.2399C75.8672 28.0425 75.3728 27.6181 74.2848 27.6181C73.3886 27.6181 72.6959 28.0911 72.6959 29.0526C72.6959 30.1959 73.9595 30.6418 75.2231 31.2118C76.4381 31.7275 78.4216 32.4736 78.4216 34.4271C78.4216 36.6504 76.5871 38.1852 74.3852 38.1852C72.3466 38.1852 71.1627 37.718 70.8102 37.5905L70.6158 34.6031L71.6545 34.5002L72.2494 36.5326C72.5501 36.7539 73.3698 37.3971 74.3573 37.3757C75.77 37.3757 76.4381 36.6329 76.4381 35.5652C76.4381 34.3035 74.6794 33.7606 73.5162 33.2177C72.4256 32.6923 70.7402 32.229 70.7402 29.9721C70.7402 28.1221 72.2773 26.8086 74.358 26.8086C76.1439 26.8086 77.2558 27.2272 77.7477 27.3728Z" fill="#051922"/>
<path id="Vector_16" d="M104.868 23.2933L103.797 21.71L100.009 24.6826L100.629 25.5684L104.868 23.2933Z" fill="#051922"/>
<path id="Vector_17" d="M98.2744 31.7554H105.558C105.482 28.7135 103.896 26.8086 100.698 26.8086C97.5538 26.8086 95.2249 29.5262 95.2249 32.4982C95.2249 35.9347 97.4812 38.1852 100.732 38.1852C103.501 38.1852 104.944 37.0988 105.783 36.4802L105.309 35.7374C104.666 36.1379 103.38 37.0056 101.245 36.8781C99.1155 36.7293 98.0528 34.5002 98.2744 31.7554ZM102.782 30.8877H98.3988C98.6444 29.0073 99.3883 27.6181 100.698 27.6181C102.19 27.6181 102.685 29.3528 102.782 30.8877Z" fill="#051922"/>
<path id="Vector_18" d="M68.1074 26.8232C66.5217 26.8232 65.38 28.0973 64.7359 29.5254H64.6873V26.9326H60.1947V27.3875L61.8594 27.8669V37.0746L60.1947 37.4687V37.9391H67.0868V37.3962L64.6873 37.0054V30.7451C65.3404 29.3073 66.3092 28.7224 66.9261 28.7224C67.3907 28.7224 67.5637 28.8104 67.9253 29.1229C68.053 29.2258 68.5241 29.3597 68.8124 29.2316C69.347 29.0071 69.4993 28.6072 69.4993 28.0274C69.498 27.3939 68.8785 26.8232 68.1074 26.8232Z" fill="#051922"/>
<path id="Vector_19" d="M98.842 58.9406V59.4194H92.8188V58.9406L94.4505 58.5549V49.3531L92.9685 48.9254V48.4129H97.281V50.0933C97.7767 49.6689 99.3345 48.2822 101.339 48.2822C103.423 48.2822 104.489 49.4502 104.489 51.4787V58.5278L106.074 58.916V59.4194H100.227V58.916L101.689 58.5549V51.7977C101.689 50.7333 101.37 49.7957 100.027 49.7957C98.8427 49.7957 97.6251 50.633 97.2816 50.8575V58.5549L98.842 58.9406Z" fill="#051922"/>
<path id="Vector_20" d="M123.579 48.2998C121.991 48.2998 120.848 49.5771 120.201 51.0084H120.153V48.4124H115.667V48.8673L117.328 49.3526V58.5544L115.667 58.94V59.4189H122.552V58.8792L120.153 58.4852V52.2281C120.809 50.7845 121.781 50.1989 122.397 50.1989C122.859 50.1989 123.032 50.2869 123.388 50.6053C123.521 50.7049 123.995 50.8415 124.271 50.7082C124.815 50.4752 124.964 50.0863 124.964 49.5046C124.964 48.8731 124.35 48.2998 123.579 48.2998Z" fill="#051922"/>
<path id="Vector_21" d="M94.3624 36.7108C93.9522 36.9839 93.5239 37.1812 92.8947 37.1812C91.9052 37.1812 91.5831 36.4623 91.5831 34.8272V27.894L94.4078 27.4786V26.9325H91.5831V21.8311H90.6565C90.4744 24.7519 89.4415 26.6659 86.8294 26.9325H86.4011V27.4786L88.7553 27.894V34.9761C88.7553 37.2175 89.2989 38.1848 91.4101 38.1848C92.9258 38.1848 94.1473 37.6206 94.6417 37.1502L94.3624 36.7108Z" fill="#051922"/>
<path id="Vector_22" d="M114.376 58.1903C113.962 58.4575 113.534 58.6633 112.915 58.6633C111.915 58.6633 111.6 57.9386 111.6 56.3067V49.3735L114.424 48.9555V48.4126H111.6V43.3105H110.676C110.488 46.2255 109.458 48.1454 106.849 48.4126H106.418V48.9555L108.769 49.3735V56.4523C108.769 58.7028 109.316 59.6675 111.424 59.6675C112.939 59.6675 114.154 59.1001 114.652 58.6297L114.376 58.1903Z" fill="#051922"/>
<path id="Vector_23" d="M44.8014 53.2348H52.0882C52.0156 50.193 50.4299 48.2822 47.2282 48.2822C44.0873 48.2822 41.7545 51.0089 41.7545 53.9757C41.7545 57.4174 44.0083 59.6685 47.2522 59.6685C50.0282 59.6685 51.468 58.5795 52.3066 57.9603L51.8355 57.2181C51.1913 57.6122 49.9064 58.4857 47.7744 58.3582C45.6458 58.2094 44.5798 55.9796 44.8014 53.2348ZM49.3121 52.3703H44.9258C45.1721 50.4874 45.9192 49.0975 47.2282 49.0975C48.7166 49.0982 49.2149 50.8362 49.3121 52.3703Z" fill="#051922"/>
<path id="Vector_24" d="M128.268 53.2318H135.552C135.483 50.1926 133.891 48.2818 130.702 48.2818C127.552 48.2818 125.222 51.0085 125.222 53.9753C125.222 57.417 127.473 59.6681 130.722 59.6681C133.496 59.6681 134.932 58.5791 135.78 57.9599L135.303 57.2177C134.663 57.6117 133.375 58.4853 131.242 58.3578C129.11 58.209 128.044 55.976 128.268 53.2318ZM134.86 44.7728L133.796 43.1895L130.006 46.1588L130.625 47.0446L134.86 44.7728ZM132.779 52.3699H128.396C128.642 50.487 129.383 49.0971 130.702 49.0971C132.184 49.0977 132.679 50.8357 132.779 52.3699Z" fill="#051922"/>
</g>
</svg>
