<svg width="28" height="28" viewBox="0 0 28 28" fill="none" xmlns="http://www.w3.org/2000/svg">
<g id="XLogo">
<path id="Vector" d="M23.4883 23.1558L16.6414 12.3955L23.3975 4.96344C23.5503 4.7912 23.629 4.56567 23.6167 4.33576C23.6043 4.10584 23.5018 3.89007 23.3314 3.73522C23.161 3.58037 22.9364 3.49892 22.7064 3.50853C22.4763 3.51814 22.2594 3.61804 22.1025 3.78656L15.6669 10.8653L11.2383 3.90578C11.1593 3.78148 11.0502 3.67912 10.9212 3.60819C10.7921 3.53726 10.6472 3.50005 10.5 3.5H5.24998C5.09309 3.49992 4.93907 3.54203 4.80404 3.62191C4.66901 3.70179 4.55794 3.8165 4.48247 3.95404C4.40699 4.09158 4.36988 4.24688 4.37502 4.40368C4.38016 4.56048 4.42737 4.71302 4.51169 4.84531L11.3586 15.6045L4.60248 23.042C4.52358 23.1268 4.46229 23.2263 4.42216 23.335C4.38203 23.4436 4.36385 23.5591 4.36868 23.6748C4.37352 23.7904 4.40126 23.904 4.45032 24.0089C4.49937 24.1138 4.56875 24.2079 4.65444 24.2858C4.74013 24.3637 4.84043 24.4237 4.94951 24.4626C5.0586 24.5014 5.1743 24.5182 5.28993 24.512C5.40555 24.5057 5.51879 24.4766 5.62308 24.4263C5.72737 24.376 5.82063 24.3055 5.89748 24.2189L12.3331 17.1402L16.7617 24.0997C16.8413 24.223 16.9507 24.3243 17.0797 24.3942C17.2087 24.4642 17.3532 24.5005 17.5 24.5H22.75C22.9067 24.5 23.0605 24.4578 23.1954 24.378C23.3302 24.2982 23.4412 24.1836 23.5166 24.0462C23.5921 23.9089 23.6293 23.7538 23.6243 23.5971C23.6193 23.4405 23.5723 23.2881 23.4883 23.1558ZM17.9801 22.75L6.84357 5.25H10.0154L21.1564 22.75H17.9801Z" fill="#FAFDFE"/>
</g>
</svg>
